<mxfile host="app.diagrams.net" modified="2024-07-12T14:27:57.171Z" agent="Mozilla/5.0 (Windows NT 10.0; Win64; x64) AppleWebKit/537.36 (KHTML, like Gecko) Chrome/125.0.0.0 Safari/537.36 OPR/111.0.0.0" etag="py0Y5znNPWJUDkTqJHWd" version="24.6.5" type="device">
  <diagram name="PÃ¡gina-1" id="KuuKFi2wcbLs2-ZyGrTj">
    <mxGraphModel dx="839" dy="476" grid="1" gridSize="10" guides="1" tooltips="1" connect="1" arrows="1" fold="1" page="1" pageScale="1" pageWidth="827" pageHeight="1169" math="0" shadow="0">
      <root>
        <mxCell id="0" />
        <mxCell id="1" parent="0" />
        <mxCell id="tsPK5VSwxzyyzSjvYAmu-26" value="&lt;div&gt;+ ligar(String numero)&lt;br&gt;&lt;/div&gt;&lt;div&gt;+ atender()&lt;br&gt;&lt;/div&gt;+ iniciarCorreioVoz()&amp;nbsp;&lt;div&gt;+ atender()&lt;br&gt;&lt;/div&gt;&lt;div&gt;+ iniciarCorreioVoz()&lt;br&gt;&lt;/div&gt;" style="rounded=0;whiteSpace=wrap;html=1;fillColor=none;align=left;" vertex="1" parent="1">
          <mxGeometry x="210" y="50" width="140" height="90" as="geometry" />
        </mxCell>
        <mxCell id="2" value="&lt;&lt;interface&gt;&gt;&#xa;ReprodutorMusical" style="swimlane;fontStyle=1;align=center;verticalAlign=top;childLayout=stackLayout;horizontal=1;startSize=39;horizontalStack=0;resizeParent=1;resizeParentMax=0;resizeLast=0;collapsible=0;marginBottom=0;" parent="1" vertex="1">
          <mxGeometry x="8" y="8" width="192" height="125" as="geometry" />
        </mxCell>
        <mxCell id="3" style="line;strokeWidth=1;fillColor=none;align=left;verticalAlign=middle;spacingTop=-1;spacingLeft=3;spacingRight=3;rotatable=0;labelPosition=right;points=[];portConstraint=eastwest;strokeColor=inherit;" parent="2" vertex="1">
          <mxGeometry y="39" width="192" height="8" as="geometry" />
        </mxCell>
        <mxCell id="4" value="+tocar()" style="text;strokeColor=none;fillColor=none;align=left;verticalAlign=top;spacingLeft=4;spacingRight=4;overflow=hidden;rotatable=0;points=[[0,0.5],[1,0.5]];portConstraint=eastwest;" parent="2" vertex="1">
          <mxGeometry y="47" width="192" height="26" as="geometry" />
        </mxCell>
        <mxCell id="5" value="+pausar()" style="text;strokeColor=none;fillColor=none;align=left;verticalAlign=top;spacingLeft=4;spacingRight=4;overflow=hidden;rotatable=0;points=[[0,0.5],[1,0.5]];portConstraint=eastwest;" parent="2" vertex="1">
          <mxGeometry y="73" width="192" height="26" as="geometry" />
        </mxCell>
        <mxCell id="6" value="+selecionarMusica(String musica)" style="text;strokeColor=none;fillColor=none;align=left;verticalAlign=top;spacingLeft=4;spacingRight=4;overflow=hidden;rotatable=0;points=[[0,0.5],[1,0.5]];portConstraint=eastwest;" parent="2" vertex="1">
          <mxGeometry y="99" width="192" height="26" as="geometry" />
        </mxCell>
        <mxCell id="tsPK5VSwxzyyzSjvYAmu-27" value="&amp;lt;&amp;lt;interface&amp;gt;&amp;gt;&amp;nbsp; &amp;nbsp; &amp;nbsp;&lt;br style=&quot;padding: 0px; margin: 0px;&quot;&gt;&amp;nbsp; AparelhoTelefonico" style="rounded=0;whiteSpace=wrap;html=1;align=center;" vertex="1" parent="1">
          <mxGeometry x="210" y="8" width="140" height="40" as="geometry" />
        </mxCell>
        <mxCell id="tsPK5VSwxzyyzSjvYAmu-30" value="+ exibirPagina(String url)&amp;nbsp;&lt;br style=&quot;padding: 0px; margin: 0px;&quot;&gt;+ adicionarNovaAba()&amp;nbsp; &amp;nbsp; &amp;nbsp; &amp;nbsp;&lt;br style=&quot;padding: 0px; margin: 0px;&quot;&gt;+ atualizarPagina()&amp;nbsp;" style="rounded=0;whiteSpace=wrap;html=1;fontColor=default;fillColor=none;align=left;" vertex="1" parent="1">
          <mxGeometry x="370" y="48" width="150" height="92" as="geometry" />
        </mxCell>
        <mxCell id="tsPK5VSwxzyyzSjvYAmu-31" value="&lt;span style=&quot;text-align: left;&quot;&gt;&amp;lt;&amp;lt;interface&amp;gt;&amp;gt;&amp;nbsp;&lt;/span&gt;&lt;br style=&quot;padding: 0px; margin: 0px; text-align: left;&quot;&gt;&lt;span style=&quot;text-align: left;&quot;&gt;&amp;nbsp;NavegadorInternet&amp;nbsp;&lt;/span&gt;" style="rounded=0;whiteSpace=wrap;html=1;fillColor=none;" vertex="1" parent="1">
          <mxGeometry x="370" y="8" width="150" height="42" as="geometry" />
        </mxCell>
        <mxCell id="tsPK5VSwxzyyzSjvYAmu-32" value="Iphone" style="rounded=0;whiteSpace=wrap;html=1;fillColor=none;" vertex="1" parent="1">
          <mxGeometry x="550" y="8" width="190" height="42" as="geometry" />
        </mxCell>
        <mxCell id="tsPK5VSwxzyyzSjvYAmu-33" value="&lt;p style=&quot;line-height: 160%;&quot;&gt;+ tocar()&amp;nbsp; &amp;nbsp; &amp;nbsp; &amp;nbsp; &amp;nbsp;&amp;nbsp;&lt;br style=&quot;padding: 0px; margin: 0px;&quot;&gt;+ pausar()&amp;nbsp; &amp;nbsp; &amp;nbsp;&amp;nbsp;&lt;br style=&quot;padding: 0px; margin: 0px;&quot;&gt;+ selecionarMusica(String musica)&amp;nbsp;&lt;br style=&quot;padding: 0px; margin: 0px;&quot;&gt;+ ligar(String numero)&amp;nbsp;&lt;br style=&quot;padding: 0px; margin: 0px;&quot;&gt;+ atender()&amp;nbsp; &amp;nbsp; &amp;nbsp; &amp;nbsp; &amp;nbsp; &amp;nbsp;&amp;nbsp;&lt;br style=&quot;padding: 0px; margin: 0px;&quot;&gt;+ iniciarCorreioVoz()&amp;nbsp;&amp;nbsp;&lt;br style=&quot;padding: 0px; margin: 0px;&quot;&gt;+ exibirPagina(String url)&amp;nbsp;&amp;nbsp;&lt;br style=&quot;padding: 0px; margin: 0px;&quot;&gt;+ adicionarNovaAba()&amp;nbsp; &amp;nbsp; &amp;nbsp; &amp;nbsp;&amp;nbsp;&lt;br style=&quot;padding: 0px; margin: 0px;&quot;&gt;+ atualizarPagina()&amp;nbsp;&lt;/p&gt;" style="rounded=0;whiteSpace=wrap;html=1;fillColor=none;align=left;" vertex="1" parent="1">
          <mxGeometry x="550" y="50" width="190" height="190" as="geometry" />
        </mxCell>
        <mxCell id="tsPK5VSwxzyyzSjvYAmu-34" value="&#xa;&lt;span style=&quot;color: rgb(0, 0, 0); font-family: Helvetica; font-size: 12px; font-style: normal; font-variant-ligatures: normal; font-variant-caps: normal; font-weight: 400; letter-spacing: normal; orphans: 2; text-align: left; text-indent: 0px; text-transform: none; widows: 2; word-spacing: 0px; -webkit-text-stroke-width: 0px; white-space: normal; background-color: rgb(251, 251, 251); text-decoration-thickness: initial; text-decoration-style: initial; text-decoration-color: initial; display: inline !important; float: none;&quot;&gt;&amp;lt;&amp;lt;implements&amp;gt;&amp;gt;&lt;/span&gt;&#xa;&#xa;" style="rounded=0;whiteSpace=wrap;html=1;fillColor=none;verticalAlign=middle;" vertex="1" parent="1">
          <mxGeometry x="240" y="180" width="120" height="30" as="geometry" />
        </mxCell>
        <mxCell id="tsPK5VSwxzyyzSjvYAmu-35" value="ReprodutorMusical&amp;nbsp;&amp;nbsp;&lt;br style=&quot;padding: 0px; margin: 0px;&quot;&gt;AparelhoTelefonico&amp;nbsp;&lt;br style=&quot;padding: 0px; margin: 0px;&quot;&gt;NavegadorInternet&amp;nbsp;&amp;nbsp;" style="rounded=0;whiteSpace=wrap;html=1;fillColor=none;align=left;" vertex="1" parent="1">
          <mxGeometry x="240" y="200" width="120" height="70" as="geometry" />
        </mxCell>
      </root>
    </mxGraphModel>
  </diagram>
</mxfile>
